# xmcd CD database file
#
# Track frame offsets:
#	150
#	13032
#	30906
#	50094
#	73420
#	91593
#	110589
#	125892
#	152440
#	167358
#
# Disc length: 2607 seconds
#
# Revision: 0
# Processed by: cddbd v1.5.1PL0 Copyright (c) Steve Scherf et al.
# Submitted via: CDex 1.51
#
DISCID=7a0a2d0a
DTITLE=Israeli's Songs - Susita
DYEAR=2004
DGENRE=Blues
TTITLE0=Halomot
TTITLE1=Elokim Natan Lecha Bematana
TTITLE2=Kaha Ze
TTITLE3=Aruts Eleha
TTITLE4=Shovyenist
TTITLE5=Nishba
TTITLE6=Ahuv Yakar
TTITLE7=Ze Kol Hakesem
TTITLE8=Sipur Shel Horef
TTITLE9=Kmo Tsemach Bar
EXTD=YEAR: 2004
EXTT0=
EXTT1=
EXTT2=
EXTT3=
EXTT4=
EXTT5=
EXTT6=
EXTT7=
EXTT8=
EXTT9=
PLAYORDER=
